<?xml version="1.0" encoding="UTF-8" standalone="no"?>
<!-- Created with Inkscape (http://www.inkscape.org/) by Marsupilami -->
<svg
   xmlns:svg="http://www.w3.org/2000/svg"
   xmlns="http://www.w3.org/2000/svg"
   version="1.0"
   width="1024"
   height="754"
   viewBox="0 0 64.103737 47.178009"
   id="svg20396">
  <defs
     id="defs20398" />
  <g
     transform="translate(-342.94813,-508.77318)"
     id="layer1">
    <path
       d="M 356.11419,541.0282 L 356.84669,540.7682 L 357.43919,541.18695 L 357.34044,540.57945 L 358.04919,540.2832 L 357.25419,540.16695 L 357.10044,539.5657 L 356.70794,540.10195 L 355.90419,540.02695 L 356.45544,540.47445 L 356.11419,541.02945"
       id="path8348"
       style="fill:#ffffff;fill-opacity:1;fill-rule:nonzero;stroke:none" />
    <path
       d="M 356.11101,541.02805 L 356.84561,540.76973 L 357.43785,541.18735 L 357.33677,540.58029 L 358.04575,540.2843 L 357.25278,540.16805 L 357.09902,539.56745 L 356.70468,540.10346 L 355.90316,540.02813 L 356.45411,540.47589 L 356.11244,541.02913 L 356.11101,541.02805 z"
       id="path8352"
       style="fill:none;stroke:#ffffff;stroke-width:0.30999792;stroke-linecap:butt;stroke-linejoin:miter;stroke-miterlimit:5;stroke-dasharray:none;stroke-opacity:1" />
    <path
       d="M 372.58294,536.2807 L 373.86294,535.6757 L 375.08294,536.3457 L 374.71794,535.23945 L 375.94044,534.56945 L 374.43419,534.4907 L 373.96919,533.40445 L 373.40544,534.4632 L 371.89419,534.46195 L 373.05169,535.19445 L 372.58419,536.2807"
       id="path8354"
       style="fill:#ffffff;fill-opacity:1;fill-rule:nonzero;stroke:none" />
    <path
       d="M 372.57979,536.28136 L 373.85965,535.67538 L 375.07972,536.34594 L 374.71385,535.23946 L 375.93534,534.5689 L 374.43054,534.49033 L 373.96357,533.40429 L 373.40124,534.46341 L 371.88932,534.46234 L 373.04818,535.19318 L 372.57979,536.28029 L 372.57979,536.28136 z"
       id="path8358"
       style="fill:none;stroke:#ffffff;stroke-width:0.30999792;stroke-linecap:butt;stroke-linejoin:miter;stroke-miterlimit:5;stroke-dasharray:none;stroke-opacity:1" />
    <path
       d="M 406.63669,532.1232 L 406.51669,532.14695 C 406.26794,532.19445 406.02044,532.2457 405.77044,532.28945 C 402.45669,532.8807 400.03919,530.0132 406.68044,529.53195 L 406.78419,529.52445 C 406.78419,529.52445 406.67919,528.1782 406.60919,527.5332 L 403.92794,522.7382 C 403.92794,522.7382 402.10794,522.7832 401.04669,523.0182 L 400.25294,520.93695 L 405.85419,518.7107 L 406.36794,516.8482 L 398.61794,515.9982 L 395.84169,508.92695 L 391.24044,515.0782 L 383.05544,514.46945 L 382.83669,516.4507 L 386.73294,519.1432 L 386.32419,518.9807 C 384.00419,519.3632 381.82669,520.42945 380.18669,521.69945 L 376.76794,521.88195 L 372.79419,514.92195 L 373.00294,514.9632 C 372.96544,514.90695 372.93669,514.84695 372.91419,514.78445 L 372.91294,514.7832 L 372.90669,514.7607 L 372.91294,514.78445 L 372.99794,514.8607 C 373.81544,515.50445 375.21669,515.1232 375.94544,514.72445 C 376.40294,514.78695 376.85419,514.8682 377.31169,514.93195 L 377.34544,514.32195 C 377.98794,515.43195 381.14669,515.30195 381.44794,514.0782 C 381.87669,512.34195 378.38169,511.5007 377.34669,513.00695 C 377.32669,512.5182 377.27794,512.02945 377.21419,511.5432 L 375.44294,511.1582 C 375.48544,511.52195 375.55544,511.8857 375.57294,512.25195 C 375.29794,512.2082 375.02294,512.17195 374.74544,512.15195 C 374.05169,512.5557 373.28794,512.98945 372.93794,513.61945 C 372.97669,513.13445 373.12919,512.6632 373.32669,512.2032 L 371.87919,511.9182 C 371.54669,512.0382 371.23919,512.19445 370.92794,512.34195 C 370.38794,512.2032 369.81544,512.1607 369.26169,512.0607 L 369.20419,512.3107 L 367.30044,512.35695 L 366.46419,510.6582 C 366.08919,511.25195 365.71419,511.8482 365.34794,512.44695 L 363.76419,512.57945 L 363.83169,512.0132 L 362.07169,511.70695 C 362.02294,512.2132 361.97419,512.71945 361.91294,513.2257 L 361.29544,513.1057 C 361.29544,513.1057 360.68169,513.17195 360.67544,513.1707 L 359.20419,512.8757 L 358.99669,513.72695 C 357.95544,511.70695 353.13294,512.81695 353.43044,514.9857 C 353.46044,515.20695 353.55544,515.4107 353.70169,515.5907 C 354.52044,516.6007 356.93544,516.8832 358.35919,515.5907 L 358.35794,515.5907 L 358.35919,515.5907 C 358.48169,515.47945 358.59669,515.3582 358.70294,515.2232 L 358.66294,515.4632 L 359.17294,515.5907 L 360.79169,515.99695 C 360.70419,515.87695 360.63669,515.73695 360.59544,515.5907 C 360.41794,514.95945 360.70919,514.17445 361.78669,513.9282 C 361.72544,514.3657 361.67294,514.8032 361.62419,515.2407 L 363.41044,515.58945 L 363.44919,515.59695 C 363.45044,515.59445 363.45044,515.58945 363.45044,515.58945 C 363.57294,514.81695 363.60919,514.0382 363.68794,513.2632 L 364.52544,513.74945 L 363.80794,515.58945 L 363.76794,515.69195 L 363.97294,515.58945 L 366.30044,514.41945 L 368.57169,515.5557 L 367.86919,513.68445 L 369.03044,513.05695 C 368.89544,513.62945 368.75044,514.20195 368.60044,514.77445 C 369.24919,514.90945 369.90669,515.0182 370.55669,515.1532 C 370.61669,514.66695 370.69669,514.1682 371.03794,513.74195 C 371.04919,514.02695 371.05919,514.31945 371.16044,514.59695 L 371.85544,514.73445 L 369.00169,522.12945 L 367.67419,522.2107 L 366.86919,518.75945 L 358.65544,516.0932 L 357.26919,520.2582 L 349.49419,517.80945 L 347.57919,531.4257 L 343.11294,530.1332 L 346.26544,541.04195 L 354.77919,543.52195 C 351.93544,545.9307 349.73669,548.77445 348.49044,551.8007 C 352.72794,548.44445 356.95419,545.1807 363.61794,543.26695 L 362.42669,546.11195 C 367.57919,543.4482 374.88294,542.8282 380.88919,543.8082 L 380.54294,544.56945 C 376.79919,543.69195 372.67044,543.8582 368.61794,544.6457 C 372.78044,545.3907 376.27294,545.94445 379.86544,547.3732 C 380.26294,552.1357 386.01044,556.28695 392.64794,555.7507 C 403.65294,554.86195 407.13044,544.4982 399.99294,539.2832 C 401.75544,539.8257 403.73669,540.0557 405.51169,540.11695 L 405.60544,540.1207 L 406.90419,534.3582 L 406.63794,532.1232 L 406.63669,532.1232 z M 379.04044,513.31445 C 379.70419,513.03195 380.16294,513.95945 379.45044,514.01695 C 378.84544,514.06445 378.71419,513.45195 379.04044,513.3132 L 379.04044,513.31445 z M 375.27294,513.33195 C 375.17669,513.4982 374.77044,514.0132 374.51169,514.0332 C 374.58794,513.7207 374.93544,513.4957 375.27294,513.33195 z M 355.56794,515.3032 C 354.90044,514.9932 356.05419,513.4482 356.78544,513.6882 C 357.66919,513.9782 356.61919,515.5932 355.56794,515.3032 z M 354.82919,543.4782 L 355.64419,538.44445 L 360.77419,539.58945 C 358.59419,540.67695 356.59044,541.99445 354.82919,543.47695 L 354.82919,543.4782 z M 379.02044,535.8632 C 374.54044,536.27445 369.87294,537.18195 365.54669,538.61945 L 365.83669,537.5857 C 364.26294,538.0582 362.74169,538.64945 361.29169,539.3407 L 362.35169,535.9157 L 363.38544,536.15695 L 364.00919,537.6507 L 373.45169,532.4707 L 379.07419,534.99695 L 379.01919,535.8632"
       id="path8368"
       style="fill:#ffffff;fill-opacity:1;fill-rule:nonzero;stroke:none" />
    <path
       d="M 406.6335,532.12451 L 406.51249,532.14819 C 406.26335,532.19555 406.01706,532.24721 405.7665,532.29028 C 402.45366,532.88119 400.03489,530.01488 406.67621,529.53375 L 406.78014,529.52514 C 406.78014,529.52514 406.67479,528.18078 406.60503,527.53498 L 403.9243,522.73985 C 403.9243,522.73985 402.10345,522.78398 401.04283,523.0197 L 400.24985,520.93805 L 405.85049,518.71109 L 406.36301,516.84793 L 398.61266,515.99978 L 395.83654,508.92818 L 391.2353,515.08058 L 383.04931,514.47136 L 382.83008,516.45291 L 386.7266,519.14378 L 386.31801,518.98125 C 383.99746,519.36335 381.81928,520.42894 380.18066,521.69903 L 376.76247,521.88308 L 372.78908,514.92235 L 372.99692,514.96433 C 372.95991,514.90728 372.93144,514.84808 372.90724,514.78565 L 372.90581,514.78458 L 372.90011,514.76198 L 372.90724,514.78565 L 372.99265,514.861 C 373.80983,515.50465 375.2107,515.12363 375.93961,514.7243 C 376.3966,514.78673 376.8479,514.86745 377.30489,514.93204 L 377.33905,514.32175 C 377.98113,515.43146 381.1402,515.30123 381.44201,514.07741 C 381.87054,512.34128 378.37547,511.50173 377.34048,513.00645 C 377.32055,512.51671 377.27214,512.02805 377.20808,511.54263 L 375.43706,511.15836 C 375.47835,511.52218 375.54953,511.8849 375.56661,512.25194 C 375.29185,512.20888 375.01566,512.17229 374.73805,512.15184 C 374.0433,512.55654 373.28023,512.98923 372.93001,513.61889 C 372.96845,513.13454 373.12077,512.66203 373.31866,512.20243 L 371.87081,511.91826 C 371.5391,512.03881 371.23018,512.19381 370.92124,512.34235 C 370.38025,512.20243 369.80795,512.16044 369.25272,512.06034 L 369.19578,512.31005 L 367.29377,512.35526 L 366.45525,510.65786 C 366.07941,511.25201 365.70641,511.8483 365.33911,512.44675 L 363.75459,512.57914 L 363.8215,512.01299 L 362.06186,511.7073 C 362.01346,512.21319 361.96364,512.72014 361.90241,513.22603 L 361.28598,513.10548 C 361.28598,513.10548 360.67096,513.17114 360.66526,513.17114 L 359.19321,512.87621 L 358.98679,513.7276 C 357.9461,511.7073 353.12276,512.81701 353.42174,514.98585 C 353.45021,515.20758 353.54559,515.40994 353.69223,515.59076 C 354.51225,516.60038 356.92534,516.88238 358.35041,515.59076 L 358.35041,515.59076 L 358.35041,515.59076 C 358.47285,515.4799 358.58816,515.35719 358.69351,515.22373 L 358.65365,515.46268 L 359.16331,515.59076 L 360.782,515.99654 C 360.69516,515.87599 360.62825,515.73606 360.58554,515.59076 C 360.40901,514.95894 360.69944,514.17429 361.77714,513.92888 C 361.71593,514.36588 361.66325,514.80395 361.61484,515.24095 L 363.40152,515.59076 L 363.43996,515.59829 C 363.44139,515.59614 363.44139,515.59076 363.44139,515.59076 L 363.44139,515.59076 C 363.56381,514.81794 363.59941,514.03974 363.68056,513.26478 L 364.51766,513.75021 L 363.80014,515.59076 L 363.76027,515.69409 L 363.96529,515.59076 L 366.29295,514.42185 L 368.5651,515.55739 L 367.86181,513.6867 L 369.02351,513.06026 C 368.88826,513.63289 368.74448,514.2055 368.59357,514.77704 C 369.24134,514.91159 369.90049,515.0203 370.55109,515.15591 C 370.61089,514.67049 370.68919,514.17106 371.03086,513.74483 C 371.04225,514.02898 371.05221,514.32175 371.1533,514.59836 L 371.84946,514.73721 L 368.99361,522.13064 L 367.66535,522.21244 L 366.85956,518.75953 L 358.64511,516.09449 L 357.2599,520.25888 L 349.48534,517.81019 L 347.57054,531.42596 L 343.10313,530.13328 L 346.2565,541.03989 L 354.77135,543.51979 C 351.9269,545.92973 349.72736,548.77344 348.48025,551.79905 C 352.71845,548.44408 356.94669,545.17844 363.60795,543.26685 L 362.41635,546.11164 C 367.56855,543.4466 374.87329,542.8277 380.87967,543.80825 L 380.5323,544.56815 C 376.78953,543.69201 372.66094,543.85669 368.60924,544.64565 C 372.77056,545.3894 376.26278,545.9448 379.85606,547.37311 C 380.25469,552.13594 386.00196,556.28634 392.63903,555.74924 C 403.64384,554.86018 407.12181,544.49819 399.98364,539.28329 C 401.74611,539.82578 403.72782,540.05504 405.50313,540.11639 L 405.59709,540.11961 L 406.89687,534.35578 L 406.63065,532.12236 L 406.6335,532.12451 z M 379.03889,513.31429 C 379.70089,513.03229 380.16073,513.96118 379.44747,514.01821 C 378.84242,514.06558 378.71145,513.45314 379.03889,513.31429 z M 375.26906,513.33259 C 375.17369,513.49941 374.76653,514.01284 374.50884,514.03329 C 374.58571,513.71899 374.93309,513.49511 375.26906,513.33259 z M 355.56575,515.30445 C 354.89664,514.99339 356.04979,513.4499 356.78155,513.68993 C 357.66564,513.97946 356.61499,515.59399 355.56575,515.30445 z M 354.82688,543.47781 L 355.64262,538.4459 L 360.77204,539.59113 C 358.59244,540.67931 356.58794,541.99676 354.82688,543.47781 z M 379.01754,535.86374 C 374.53874,536.2749 369.87059,537.18226 365.54411,538.62026 L 365.83454,537.58698 C 364.25999,538.05949 362.73953,538.6504 361.28883,539.34141 L 362.34945,535.91648 L 363.38301,536.15651 L 364.00657,537.65048 L 373.44822,532.4711 L 379.07164,534.99836 L 379.01611,535.86481 L 379.01754,535.86374 z"
       id="path8372"
       style="fill:none;stroke:#ffffff;stroke-width:0.30999792;stroke-linecap:butt;stroke-linejoin:miter;stroke-miterlimit:5;stroke-dasharray:none;stroke-opacity:1" />
    <path
       d="M 356.11294,541.02695 L 356.84669,540.7682 L 357.43919,541.1857 L 357.33919,540.5782 L 358.04794,540.28195 L 357.25294,540.1657 L 357.09919,539.56445 L 356.70669,540.1007 L 355.90294,540.0257 L 356.45544,540.4732 L 356.11294,541.02695"
       id="path8374"
       style="fill:#bfcccc;fill-opacity:1;fill-rule:nonzero;stroke:none" />
    <path
       d="M 372.58294,536.2807 L 373.86294,535.67445 L 375.08294,536.3457 L 374.71669,535.2382 L 375.93919,534.5682 L 374.43294,534.48945 L 373.96794,533.40445 L 373.40294,534.46195 L 371.89294,534.46195 L 373.05044,535.19445 L 372.58294,536.2807"
       id="path8384"
       style="fill:#bfcccc;fill-opacity:1;fill-rule:nonzero;stroke:none" />
    <path
       d="M 406.63669,532.1232 L 406.51544,532.14695 C 406.26669,532.19445 406.01919,532.2457 405.77044,532.28945 C 402.45544,532.88195 400.03794,530.01445 406.67919,529.5332 L 406.78294,529.5257 C 406.78294,529.5257 406.67794,528.17945 406.60794,527.53445 L 403.92669,522.7382 C 403.92669,522.7382 402.10669,522.78445 401.04544,523.01945 L 400.25169,520.9382 L 405.85294,518.7107 L 406.36669,516.84945 L 398.61669,515.99945 L 395.84044,508.92695 L 391.23794,515.07945 L 383.05294,514.4707 L 382.83419,516.45195 L 386.73044,519.14445 L 386.32169,518.98195 C 384.00169,519.36445 381.82294,520.4307 380.18419,521.7007 L 376.76544,521.8832 L 372.79169,514.9232 L 373.00044,514.96445 C 372.96294,514.90695 372.93419,514.8482 372.91294,514.7857 L 372.90919,514.7857 L 372.90419,514.76195 L 372.91294,514.7857 L 372.99669,514.86195 C 373.81419,515.50445 375.21419,515.12445 375.94294,514.7257 C 376.40044,514.78695 376.85294,514.8682 377.30919,514.9332 L 377.34419,514.3232 C 377.98669,515.4332 381.14544,515.3032 381.44669,514.07945 C 381.87544,512.3432 378.38044,511.50195 377.34544,513.0082 C 377.32544,512.51945 377.27669,512.0307 377.21294,511.5432 L 375.44169,511.15945 C 375.48419,511.5232 375.55419,511.8857 375.57169,512.25195 C 375.29794,512.2082 375.02169,512.1732 374.74294,512.15195 C 374.04919,512.55695 373.28544,512.9907 372.93544,513.6207 C 372.97294,513.1357 373.12669,512.6632 373.32419,512.2032 L 371.87669,511.91945 C 371.54419,512.03945 371.23669,512.19445 370.92544,512.3432 C 370.38419,512.20445 369.81169,512.1607 369.25794,512.0607 L 369.20169,512.3107 L 367.29794,512.35695 L 366.46169,510.6582 C 366.08544,511.2532 365.71169,511.8482 365.34544,512.44695 L 363.76169,512.57945 L 363.82919,512.0132 L 362.06919,511.70695 C 362.02044,512.2132 361.97169,512.71945 361.90919,513.2257 L 361.29294,513.1057 C 361.29294,513.1057 360.67919,513.17195 360.67294,513.1707 L 359.20169,512.8757 L 358.99419,513.72695 C 357.95294,511.7082 353.13044,512.8182 353.42794,514.9857 C 353.45794,515.20695 353.55294,515.4107 353.69919,515.5907 C 354.52044,516.6007 356.93294,516.8832 358.35794,515.5907 L 358.35669,515.5907 L 358.35794,515.5907 C 358.48044,515.47945 358.59419,515.3582 358.70044,515.2232 L 358.66169,515.4632 L 359.17169,515.5907 L 360.79044,515.99695 C 360.70169,515.8757 360.63544,515.73695 360.59419,515.5907 C 360.41544,514.95945 360.70669,514.1732 361.78419,513.9282 C 361.72419,514.3657 361.67169,514.8032 361.62294,515.2407 L 363.40919,515.5907 L 363.44919,515.5982 C 363.44919,515.5957 363.45044,515.5907 363.45044,515.5907 C 363.57169,514.8182 363.60669,514.03945 363.68669,513.26445 L 364.52419,513.7507 L 363.80794,515.5907 L 363.76794,515.6932 L 363.97169,515.5907 L 366.29919,514.4207 L 368.56919,515.5582 L 367.86794,513.68695 L 369.02919,513.0582 C 368.89294,513.63195 368.74794,514.20445 368.59919,514.7757 C 369.24794,514.9107 369.90669,515.01945 370.55544,515.1557 C 370.61544,514.6707 370.69544,514.16945 371.03669,513.74445 C 371.04919,514.02945 371.05794,514.32195 371.15919,514.5982 L 371.85419,514.73695 L 369.00044,522.1307 L 367.67169,522.21195 L 366.86794,518.7607 L 358.65169,516.09445 L 357.26669,520.25945 L 349.49169,517.8107 L 347.57669,531.42695 L 343.11044,530.13445 L 346.26294,541.04195 L 354.77669,543.5232 C 351.93294,545.9307 349.73294,548.7757 348.48669,551.8007 C 352.72544,548.44445 356.95169,545.1807 363.61544,543.2682 L 362.42294,546.11195 C 367.57544,543.4482 374.87919,542.8282 380.88669,543.8082 L 380.54044,544.56945 C 376.79669,543.69195 372.66794,543.8582 368.61419,544.6457 C 372.77669,545.3907 376.26919,545.9457 379.86294,547.3732 C 380.26169,552.1357 386.00794,556.28695 392.64544,555.7507 C 403.65044,554.8607 407.12794,544.4982 399.99044,539.2832 C 401.75294,539.8257 403.73294,540.05695 405.50919,540.11695 L 405.60294,540.11945 L 406.90169,534.35695 L 406.63669,532.1232 z M 379.04044,513.31445 C 379.70419,513.03195 380.16419,513.95945 379.45044,514.01695 C 378.84419,514.0657 378.71419,513.4532 379.04044,513.31445 z M 375.27294,513.33195 C 375.17544,513.4982 374.77169,514.01195 374.51169,514.0332 C 374.58794,513.71945 374.93544,513.49445 375.27294,513.33195 z M 355.56669,515.3032 C 354.89919,514.99445 356.05294,513.4482 356.78544,513.6882 C 357.66919,513.9782 356.61794,515.5932 355.56669,515.3032 z M 354.83044,543.4782 L 355.64419,538.4432 L 360.77419,539.5907 C 358.59419,540.6782 356.59044,541.99445 354.83044,543.4782 z M 379.02044,535.8632 C 374.54044,536.27445 369.87294,537.1807 365.54669,538.61945 L 365.83669,537.5857 C 364.26294,538.0582 362.74169,538.64945 361.29169,539.33945 L 362.35294,535.91445 L 363.38669,536.15695 L 364.01044,537.64945 L 373.45294,532.4707 L 379.07419,534.9957 L 379.02044,535.8632"
       id="path8386"
       style="fill:#bfcccc;fill-opacity:1;fill-rule:nonzero;stroke:none" />
    <path
       d="M 405.95544,532.8507 C 404.58919,533.1132 402.33794,532.8082 401.83669,531.66195 C 401.06544,529.89695 404.25169,529.14695 405.97294,529.0082 L 405.86294,527.68695 L 403.35669,523.36945 C 402.44419,523.45695 401.60419,523.45195 400.52169,523.7307 L 399.34419,520.6457 L 405.17794,518.32695 L 405.45294,517.3332 L 398.02294,516.5182 L 395.61919,510.3957 L 391.66169,515.68695 L 383.73419,515.11445 L 383.62294,516.21445 L 389.15544,520.02445 L 388.69044,520.67695 L 386.23919,519.58945 C 383.02044,520.16945 380.62419,522.19945 380.52794,522.2607 L 376.27919,522.4882 L 372.32919,515.56945 L 369.58544,522.67445 L 367.03919,522.8307 L 366.18669,519.1682 L 359.17419,516.8932 L 357.79169,521.0507 L 350.14294,518.64195 L 348.23169,532.23445 L 344.15919,531.05695 L 346.92169,540.61445 L 354.18169,542.72945 L 354.99544,537.69695 L 360.62669,538.95445 L 361.79544,535.17945 L 363.99419,535.69445 L 364.41919,536.71195 L 373.41044,531.77945 L 379.86044,534.67695 L 379.84669,535.79195 C 382.36169,535.59445 384.80794,535.55445 387.08794,535.6657 C 387.23669,535.6732 387.38669,535.68445 387.53669,535.6957 L 388.32669,536.32195 C 385.13669,536.0532 381.35294,536.12695 376.91169,536.65445 C 372.62919,537.1632 368.47544,538.08945 364.56044,539.5107 L 364.88919,538.4332 C 358.77919,540.39445 352.45669,545.3857 349.98919,550.03445 C 353.93294,546.62445 359.50044,543.72695 364.65794,542.45195 L 363.60794,544.95695 C 368.33794,542.77195 376.46544,542.4107 381.75669,543.44695 L 380.95294,545.21695 C 378.06669,544.4557 373.74044,544.17695 370.75044,544.6457 C 374.18169,545.1082 377.74919,545.6557 380.71294,547.1182 C 380.87544,551.7332 386.63544,555.6332 392.73794,555.1207 C 403.86794,554.18695 408.26794,540.35445 392.50794,536.93195 L 393.44919,536.5332 L 396.42919,537.40195 L 396.42919,536.19695 C 397.71669,538.4807 401.95044,539.39695 404.96419,539.51695 C 405.23669,538.3107 405.50544,537.1032 405.76669,535.8957 C 405.86669,535.4332 406.10919,534.3957 406.10919,534.3957 L 405.95544,532.8507"
       id="path8388"
       style="fill:#000000;fill-opacity:1;fill-rule:nonzero;stroke:none" />
    <path
       d="M 352.08044,521.0232 L 350.01919,534.4957 L 346.92169,533.57945 L 348.32044,538.22945 L 352.48919,539.53695 L 353.92044,528.9657 L 356.31044,535.14945 L 359.20544,535.8632 L 361.50169,526.94445 L 362.28794,532.74695 L 364.74294,533.4632 L 367.05294,527.70695 L 361.13669,524.53945 L 360.94919,523.2707 L 364.94419,522.9757 L 364.36419,520.05945 L 360.56294,518.7532 L 357.97794,527.9432 L 355.63419,522.10445 L 352.08044,521.0232"
       id="path8390"
       style="fill:#0099ff;fill-opacity:1;fill-rule:nonzero;stroke:none" />
    <path
       d="M 352.07639,521.02308 L 350.01636,534.49678 L 346.9185,533.58081 L 348.31795,538.23063 L 352.4864,539.53839 L 353.91716,528.96759 L 356.3089,535.1512 L 359.20175,535.86481 L 361.4981,526.94729 L 362.28538,532.7488 L 364.74117,533.46564 L 367.05176,527.70826 L 361.13508,524.54058 L 360.94858,523.27371 L 364.94334,522.97773 L 364.36249,520.06083 L 360.56134,518.75414 L 357.97741,527.94506 L 355.63409,522.10696 L 352.07781,521.02415 L 352.07639,521.02308 z"
       id="path8394"
       style="fill:none;stroke:#0099ff;stroke-width:0.07749967;stroke-linecap:butt;stroke-linejoin:miter;stroke-miterlimit:4;stroke-dasharray:none;stroke-opacity:1" />
    <path
       d="M 391.06419,523.53445 L 391.38419,532.4832 L 394.43919,533.95195 L 394.14294,522.99945 L 393.44294,522.63195 L 391.06419,523.53445"
       id="path8396"
       style="fill:#0099ff;fill-opacity:1;fill-rule:nonzero;stroke:none" />
    <path
       d="M 391.06161,523.53528 L 391.38194,532.48509 L 394.43709,533.95215 L 394.13955,522.99925 L 393.44054,522.63329 L 391.06161,523.53528 z"
       id="path8400"
       style="fill:none;stroke:#0099ff;stroke-width:0.07749967;stroke-linecap:butt;stroke-linejoin:miter;stroke-miterlimit:4;stroke-dasharray:none;stroke-opacity:1" />
    <path
       d="M 380.90919,530.8632 C 381.67419,531.3632 382.53294,531.5907 383.55294,531.5457 L 383.70919,529.05445 C 381.95294,528.9707 381.29544,527.0657 384.02294,525.00695 C 384.38169,524.7357 384.96544,524.4557 385.30669,524.3307 L 385.31044,529.3632 C 385.31044,531.81695 385.00669,533.10195 381.83919,534.1632 L 384.32919,535.6057 C 384.61919,535.60445 384.90669,535.60445 385.19169,535.6082 C 385.64169,535.3507 386.07544,535.0757 386.47044,534.7707 C 387.42794,534.03445 388.56919,532.64445 388.84794,531.6307 C 389.14169,530.56445 389.08294,529.44945 389.06669,528.36695 C 389.04544,526.9757 388.96294,525.6582 388.89544,524.2682 L 386.02169,525.5207 C 386.06669,525.2782 386.15669,524.39445 386.15669,524.39445 L 387.83919,521.91195 L 385.97669,520.95945 C 385.10169,521.13195 384.04794,521.5382 383.34919,522.15695 L 384.33544,522.1057 L 383.93294,523.40445 L 379.75419,526.24695 C 379.35044,527.8107 379.31794,529.8232 380.90919,530.8632"
       id="path8402"
       style="fill:#0099ff;fill-opacity:1;fill-rule:nonzero;stroke:none" />
    <path
       d="M 380.90673,530.86304 C 381.67122,531.36354 382.52969,531.58958 383.55044,531.54651 L 383.70704,529.05478 C 381.95026,528.96974 381.29395,527.06569 384.02025,525.00664 C 384.379,524.73648 384.96412,524.45555 385.30437,524.33069 L 385.30865,529.36261 C 385.30865,531.81668 385.00399,533.10184 381.83636,534.16204 L 384.32633,535.60326 C 384.61533,535.60326 384.90433,535.60326 385.18906,535.60758 C 385.63894,535.34925 386.07315,535.0737 386.46893,534.77018 C 387.42704,534.03395 388.56596,532.64331 388.845,531.63048 C 389.13826,530.56489 389.08132,529.44979 389.06281,528.36699 C 389.04146,526.97635 388.95889,525.6589 388.8934,524.26826 L 386.01905,525.52005 C 386.06319,525.27788 386.1543,524.3942 386.1543,524.3942 L 387.83848,521.91214 L 385.97491,520.95958 C 385.1008,521.13286 384.04729,521.53758 383.34686,522.15648 L 384.33345,522.10589 L 383.93197,523.40504 L 379.75214,526.24766 C 379.34783,527.81051 379.31508,529.82436 380.90673,530.86304 z"
       id="path8406"
       style="fill:none;stroke:#0099ff;stroke-width:0.07749967;stroke-linecap:butt;stroke-linejoin:miter;stroke-miterlimit:4;stroke-dasharray:none;stroke-opacity:1" />
    <path
       d="M 401.17919,525.78195 L 400.90544,524.9632 C 401.34419,524.85695 401.76294,524.77445 402.33044,524.7457 L 403.58669,527.0732 C 397.48794,528.3557 399.12044,533.39945 403.12294,534.0682 C 403.12294,534.0682 403.55919,534.1457 403.76044,534.16195 L 403.29544,536.7032 C 401.28794,536.4507 399.38169,535.9032 398.06419,534.69195 C 396.14919,532.9307 394.90919,527.93195 398.81919,525.5982 L 400.61169,526.91445 L 401.17919,525.78195"
       id="path8408"
       style="fill:#0099ff;fill-opacity:1;fill-rule:nonzero;stroke:none" />
    <path
       d="M 401.17665,525.78053 L 400.90331,524.96466 C 401.34179,524.8581 401.76035,524.77415 402.32696,524.74724 L 403.58546,527.0743 C 397.48655,528.35515 399.11805,533.39999 403.12135,534.06948 C 403.12135,534.06948 403.55699,534.14805 403.75773,534.16311 L 403.29361,536.70436 C 401.28485,536.45143 399.37858,535.90356 398.0617,534.69268 C 396.1469,532.93285 394.90833,527.9343 398.81624,525.5997 L 400.60861,526.915 L 401.17665,525.78268 L 401.17665,525.78053 z"
       id="path8412"
       style="fill:none;stroke:#0099ff;stroke-width:0.07749967;stroke-linecap:butt;stroke-linejoin:miter;stroke-miterlimit:4;stroke-dasharray:none;stroke-opacity:1" />
    <path
       d="M 364.73169,533.45945 L 364.58919,533.80945 L 361.84419,533.03445 L 361.41794,529.7207 L 359.64794,536.5907 L 355.80919,535.55445 L 354.08544,531.1057 L 352.98294,540.1507 L 347.83294,538.5232 L 346.19419,532.88945 L 349.52794,533.9257 L 351.47669,520.28695 L 356.20044,521.77945 L 357.84419,526.20945 L 360.14794,518.1932 L 364.89169,519.81195 L 365.53919,522.93445 L 364.95919,522.97695 L 361.94169,520.8632 L 360.42794,521.46945 L 359.53794,526.17945 L 363.54294,526.9857 L 363.23294,530.34195 L 364.73169,533.45945"
       id="path8414"
       style="fill:#bfcccc;fill-opacity:1;fill-rule:nonzero;stroke:none" />
    <path
       d="M 379.25794,526.5907 C 378.44669,530.10945 380.47419,532.03445 384.01544,531.8632 L 384.21294,528.7282 C 383.71669,528.7182 382.80169,528.45195 382.71919,527.8307 C 382.62669,527.13195 383.37669,525.80195 384.82544,525.02695 L 384.82794,529.3632 C 384.82794,532.0932 384.38169,533.0507 380.88169,534.06695 L 383.97544,535.85945 L 384.70794,535.95195 C 384.70794,535.95195 385.17669,536.0857 385.54294,535.8757 C 387.02544,535.02695 389.78669,533.0682 389.56669,529.8807 C 389.46669,528.4332 389.41794,525.5307 389.34794,524.0732 L 388.88294,524.2757 L 388.55169,525.2457 L 385.90419,526.1457 L 385.28044,523.5207 L 387.83669,521.9182 L 388.08794,521.5782 L 386.06919,520.5707 C 384.85294,520.73945 383.37919,521.5082 382.56919,522.20445 L 383.35044,522.1557 L 384.93544,521.5532 L 383.77544,524.76695 L 379.74294,526.2607 L 379.25794,526.5907"
       id="path8416"
       style="fill:#bfcccc;fill-opacity:1;fill-rule:nonzero;stroke:none" />
    <path
       d="M 390.56294,523.7182 L 390.88669,532.69445 L 394.96669,534.6557 L 394.59044,523.22945 L 394.14044,523.0057 L 393.78669,523.5432 L 392.74419,523.7357 L 391.59919,524.0482 L 391.05544,523.53445 L 390.56294,523.7182"
       id="path8418"
       style="fill:#bfcccc;fill-opacity:1;fill-rule:nonzero;stroke:none" />
    <path
       d="M 400.78294,524.64195 C 401.27544,524.49695 401.94919,524.41445 402.59169,524.3682 L 404.18544,527.3082 C 398.03419,528.31195 399.53669,533.40195 403.78169,533.78445 L 404.28794,533.83695 L 403.72419,537.17445 C 401.49044,536.9157 399.24169,536.2957 397.67544,534.9807 C 395.61919,533.25695 394.14044,527.8932 398.50169,525.3532 L 398.81419,525.59695 L 398.45169,527.15945 L 401.51544,527.38945 L 402.01169,525.2257 L 400.90544,524.96195 L 400.78294,524.64195"
       id="path8420"
       style="fill:#bfcccc;fill-opacity:1;fill-rule:nonzero;stroke:none" />
    <path
       d="M 352.08044,521.0232 L 350.01919,534.4957 L 346.92169,533.57945 L 348.32044,538.22945 L 352.48919,539.53695 L 353.92044,528.9657 L 356.31044,535.14945 L 359.20544,535.8632 L 361.50169,526.94445 L 362.28794,532.74695 L 364.74294,533.4632 L 367.05294,527.70695 L 361.13669,524.53945 L 360.94919,523.2707 L 364.94419,522.9757 L 364.36419,520.05945 L 360.56294,518.7532 L 357.97794,527.9432 L 355.63419,522.10445 L 352.08044,521.0232"
       id="path8422"
       style="fill:#0099ff;fill-opacity:1;fill-rule:nonzero;stroke:none" />
    <path
       d="M 391.06419,523.53445 L 391.38419,532.4832 L 394.43919,533.95195 L 394.14294,522.99945 L 393.44294,522.63195 L 391.06419,523.53445"
       id="path8424"
       style="fill:#0099ff;fill-opacity:1;fill-rule:nonzero;stroke:none" />
    <path
       d="M 380.90919,530.8632 C 381.67419,531.3632 382.53294,531.5907 383.55294,531.5457 L 383.70919,529.05445 C 381.95294,528.9707 381.29544,527.0657 384.02294,525.00695 C 384.38169,524.7357 384.96544,524.4557 385.30669,524.3307 L 385.31044,529.3632 C 385.31044,531.81695 385.00669,533.10195 381.83919,534.1632 L 384.32919,535.6057 C 384.61919,535.60445 384.90669,535.60445 385.19169,535.6082 C 385.64169,535.3507 386.07544,535.0757 386.47044,534.7707 C 387.42794,534.03445 388.56919,532.64445 388.84794,531.6307 C 389.14169,530.56445 389.08294,529.44945 389.06669,528.36695 C 389.04544,526.9757 388.96294,525.6582 388.89544,524.2682 L 386.02169,525.5207 C 386.06669,525.2782 386.15669,524.39445 386.15669,524.39445 L 387.83919,521.91195 L 385.97669,520.95945 C 385.10169,521.13195 384.04794,521.5382 383.34919,522.15695 L 384.33544,522.1057 L 383.93294,523.40445 L 379.75419,526.24695 C 379.35044,527.8107 379.31794,529.8232 380.90919,530.8632"
       id="path8426"
       style="fill:#0099ff;fill-opacity:1;fill-rule:nonzero;stroke:none" />
    <path
       d="M 401.17919,525.78195 L 400.90544,524.9632 C 401.34419,524.85695 401.76294,524.77445 402.33044,524.7457 L 403.58669,527.0732 C 397.48794,528.3557 399.12044,533.39945 403.12294,534.0682 C 403.12294,534.0682 403.55919,534.1457 403.76044,534.16195 L 403.29544,536.7032 C 401.28794,536.4507 399.38169,535.9032 398.06419,534.69195 C 396.14919,532.9307 394.90919,527.93195 398.81919,525.5982 L 400.61169,526.91445 L 401.17919,525.78195"
       id="path8428"
       style="fill:#0099ff;fill-opacity:1;fill-rule:nonzero;stroke:none" />
    <path
       d="M 352.08044,521.0232 L 350.01919,534.4957 L 346.92169,533.57945 L 348.32044,538.22945 L 352.48919,539.53695 L 353.92044,528.9657 L 356.31044,535.14945 L 359.20544,535.8632 L 361.50169,526.94445 L 362.28794,532.74695 L 364.74294,533.4632 L 367.05294,527.70695 L 361.13669,524.53945 L 360.94919,523.2707 L 364.94419,522.9757 L 364.36419,520.05945 L 360.56294,518.7532 L 357.97794,527.9432 L 355.63419,522.10445 L 352.08044,521.0232"
       id="path8438"
       style="fill:#0099ff;fill-opacity:1;fill-rule:nonzero;stroke:none" />
    <path
       d="M 352.07639,521.02308 L 350.01636,534.49678 L 346.9185,533.58081 L 348.31795,538.23063 L 352.4864,539.53839 L 353.91716,528.96759 L 356.3089,535.1512 L 359.20175,535.86481 L 361.4981,526.94729 L 362.28538,532.7488 L 364.74117,533.46564 L 367.05176,527.70826 L 361.13508,524.54058 L 360.94858,523.27371 L 364.94334,522.97773 L 364.36249,520.06083 L 360.56134,518.75414 L 357.97741,527.94506 L 355.63409,522.10696 L 352.07781,521.02415 L 352.07639,521.02308 z"
       id="path8442"
       style="fill:none;stroke:#cccccc;stroke-width:0.07749967;stroke-linecap:butt;stroke-linejoin:miter;stroke-miterlimit:4;stroke-dasharray:none;stroke-opacity:1" />
    <path
       d="M 391.06419,523.53445 L 391.38419,532.4832 L 394.43919,533.95195 L 394.14294,522.99945 L 393.44294,522.63195 L 391.06419,523.53445"
       id="path8444"
       style="fill:#0099ff;fill-opacity:1;fill-rule:nonzero;stroke:none" />
    <path
       d="M 391.06161,523.53528 L 391.38194,532.48509 L 394.43709,533.95215 L 394.13955,522.99925 L 393.44054,522.63329 L 391.06161,523.53528 z"
       id="path8448"
       style="fill:none;stroke:#cccccc;stroke-width:0.07749967;stroke-linecap:butt;stroke-linejoin:miter;stroke-miterlimit:4;stroke-dasharray:none;stroke-opacity:1" />
    <path
       d="M 380.90919,530.8632 C 381.67419,531.3632 382.53294,531.5907 383.55294,531.5457 L 383.70919,529.05445 C 381.95294,528.9707 381.29544,527.0657 384.02294,525.00695 C 384.38169,524.7357 384.96544,524.4557 385.30669,524.3307 L 385.31044,529.3632 C 385.31044,531.81695 385.00669,533.10195 381.83919,534.1632 L 384.32919,535.6057 C 384.61919,535.60445 384.90669,535.60445 385.19169,535.6082 C 385.64169,535.3507 386.07544,535.0757 386.47044,534.7707 C 387.42794,534.03445 388.56919,532.64445 388.84794,531.6307 C 389.14169,530.56445 389.08294,529.44945 389.06669,528.36695 C 389.04544,526.9757 388.96294,525.6582 388.89544,524.2682 L 386.02169,525.5207 C 386.06669,525.2782 386.15669,524.39445 386.15669,524.39445 L 387.83919,521.91195 L 385.97669,520.95945 C 385.10169,521.13195 384.04794,521.5382 383.34919,522.15695 L 384.33544,522.1057 L 383.93294,523.40445 L 379.75419,526.24695 C 379.35044,527.8107 379.31794,529.8232 380.90919,530.8632"
       id="path8450"
       style="fill:#0099ff;fill-opacity:1;fill-rule:nonzero;stroke:none" />
    <path
       d="M 380.90673,530.86304 C 381.67122,531.36354 382.52969,531.58958 383.55044,531.54651 L 383.70704,529.05478 C 381.95026,528.96974 381.29395,527.06569 384.02025,525.00664 C 384.379,524.73648 384.96412,524.45555 385.30437,524.33069 L 385.30865,529.36261 C 385.30865,531.81668 385.00399,533.10184 381.83636,534.16204 L 384.32633,535.60326 C 384.61533,535.60326 384.90433,535.60326 385.18906,535.60758 C 385.63894,535.34925 386.07315,535.0737 386.46893,534.77018 C 387.42704,534.03395 388.56596,532.64331 388.845,531.63048 C 389.13826,530.56489 389.08132,529.44979 389.06281,528.36699 C 389.04146,526.97635 388.95889,525.6589 388.8934,524.26826 L 386.01905,525.52005 C 386.06319,525.27788 386.1543,524.3942 386.1543,524.3942 L 387.83848,521.91214 L 385.97491,520.95958 C 385.1008,521.13286 384.04729,521.53758 383.34686,522.15648 L 384.33345,522.10589 L 383.93197,523.40504 L 379.75214,526.24766 C 379.34783,527.81051 379.31508,529.82436 380.90673,530.86304 z"
       id="path8454"
       style="fill:none;stroke:#cccccc;stroke-width:0.07749967;stroke-linecap:butt;stroke-linejoin:miter;stroke-miterlimit:4;stroke-dasharray:none;stroke-opacity:1" />
    <path
       d="M 401.17919,525.78195 L 400.90544,524.9632 C 401.34419,524.85695 401.76294,524.77445 402.33044,524.7457 L 403.58669,527.0732 C 397.48794,528.3557 399.12044,533.39945 403.12294,534.0682 C 403.12294,534.0682 403.55919,534.1457 403.76044,534.16195 L 403.29544,536.7032 C 401.28794,536.4507 399.38169,535.9032 398.06419,534.69195 C 396.14919,532.9307 394.90919,527.93195 398.81919,525.5982 L 400.61169,526.91445 L 401.17919,525.78195"
       id="path8456"
       style="fill:#0099ff;fill-opacity:1;fill-rule:nonzero;stroke:none" />
    <path
       d="M 401.17665,525.78053 L 400.90331,524.96466 C 401.34179,524.8581 401.76035,524.77415 402.32696,524.74724 L 403.58546,527.0743 C 397.48655,528.35515 399.11805,533.39999 403.12135,534.06948 C 403.12135,534.06948 403.55699,534.14805 403.75773,534.16311 L 403.29361,536.70436 C 401.28485,536.45143 399.37858,535.90356 398.0617,534.69268 C 396.1469,532.93285 394.90833,527.9343 398.81624,525.5997 L 400.60861,526.915 L 401.17665,525.78268 L 401.17665,525.78053 z"
       id="path8460"
       style="fill:none;stroke:#cccccc;stroke-width:0.07749967;stroke-linecap:butt;stroke-linejoin:miter;stroke-miterlimit:4;stroke-dasharray:none;stroke-opacity:1" />
    <path
       d="M 388.86169,537.8257 L 390.49419,537.25195 L 391.92669,538.25945 L 391.58669,536.82945 L 393.15419,536.16695 L 391.31169,535.85695 L 390.84794,534.43945 L 390.04919,535.6782 L 388.19419,535.4657 L 389.54294,536.5407 L 388.86169,537.8257"
       id="path8462"
       style="fill:#bfcccc;fill-opacity:1;fill-rule:nonzero;stroke:none" />
    <path
       d="M 360.88044,542.55945 L 361.53919,542.2607 L 362.15294,542.6107 L 361.97919,542.04445 L 362.60919,541.71195 L 361.84294,541.6607 L 361.61919,541.1057 L 361.31919,541.6407 L 360.55169,541.6307 L 361.13169,542.0107 L 360.88044,542.55945"
       id="path8464"
       style="fill:#bfcccc;fill-opacity:1;fill-rule:nonzero;stroke:none" />
    <path
       d="M 394.66794,542.9582 C 395.54669,542.31945 396.30294,541.61195 396.77419,540.7732 C 394.91294,539.64195 391.46669,538.33195 383.16544,538.5232 C 386.74044,538.8607 390.11294,539.4507 392.09169,540.30445 C 390.52169,539.9807 389.57044,539.92945 389.57044,539.92945 C 389.13044,540.00945 388.50919,540.10195 388.05294,540.2182 C 390.66544,540.77445 392.61544,541.5332 394.66794,542.9582 z M 394.11544,543.31945 C 388.06419,539.1957 377.08794,539.11195 369.76044,541.2232 C 374.97544,540.72445 385.36044,540.16195 389.49669,543.2132 C 388.23919,542.80195 385.71044,542.1382 384.28294,542.30945 C 383.82794,542.77195 383.44169,543.2782 383.10419,543.79445 C 386.87419,544.5382 390.72794,545.2782 394.11544,543.31945 z M 396.50919,545.50445 C 395.95419,544.87695 395.29044,544.3032 394.60794,543.75445 C 390.94044,545.9382 386.87419,545.1382 382.76169,544.3332 C 381.97919,545.96945 381.95794,547.67445 382.71794,549.3182 C 387.54794,549.0507 392.60669,547.6807 396.50919,545.50445 z M 397.75169,547.3232 C 397.51294,546.88195 397.23544,546.4532 396.93294,546.0357 C 392.89794,548.25945 388.00419,549.57445 383.04294,549.9182 C 384.85794,552.6732 388.45794,554.32445 392.55169,554.05195 C 393.53294,551.53695 394.62294,548.78695 397.75169,547.3232 z M 398.07169,547.90695 C 395.19669,549.20695 394.28794,551.6932 393.38794,553.9657 C 395.34919,553.64445 397.11169,553.0007 398.51419,551.89945 C 398.80544,550.5707 398.56919,549.19195 398.07169,547.90695 z M 398.68919,547.59195 C 399.17544,548.7107 399.42544,549.84695 399.49419,551.0107 C 400.54169,549.70195 401.04294,548.61195 401.18669,547.0307 C 400.32794,547.15195 399.47794,547.3232 398.68919,547.59195 z M 397.52169,545.69195 C 397.85419,546.13445 398.15169,546.5857 398.42169,547.05195 C 399.32794,546.74695 400.21544,546.5607 401.19294,546.4457 C 401.07794,545.3757 400.78294,544.6082 400.19544,543.64445 C 399.39419,544.4107 398.52544,545.0707 397.52169,545.69195 z M 395.19044,543.3907 C 395.84169,543.92445 396.54169,544.55945 397.08794,545.16195 C 398.10919,544.51695 398.98169,543.8607 399.74044,543.0357 C 399.09794,542.2907 398.03044,541.47695 397.30419,541.0907 C 396.79419,541.9707 396.08544,542.7157 395.19044,543.3907"
       id="path8466"
       style="fill:#bfcccc;fill-opacity:1;fill-rule:evenodd;stroke:none" />
    <path
       d="M 399.17919,543.07945 C 398.93669,543.30945 398.70044,543.5132 398.45544,543.70695 C 398.12419,543.25445 397.74044,542.8232 397.30919,542.4207 C 397.49669,542.22445 397.67294,542.0207 397.83794,541.8107 C 398.37544,542.1982 398.85419,542.6607 399.17919,543.07945 z M 400.52919,545.9732 C 400.22294,546.0207 399.94044,546.07195 399.66044,546.1332 C 399.56169,545.7882 399.43669,545.44945 399.28669,545.1182 C 399.57669,544.90695 399.85294,544.6907 400.12919,544.4607 C 400.35044,544.94945 400.47044,545.41445 400.52919,545.9732 z M 399.84919,549.1832 L 399.82919,549.06695 C 399.91044,548.57445 399.93544,548.0857 399.90794,547.60445 C 400.07544,547.5632 400.24294,547.5257 400.41794,547.49195 C 400.28919,548.09695 400.11044,548.6507 399.84919,549.1832 z M 391.52919,539.52695 C 391.37794,539.4782 391.22169,539.4307 391.06419,539.3857 C 393.49294,539.7857 395.16419,540.3907 396.11544,540.8682 C 395.99169,541.02945 395.85544,541.18695 395.70794,541.3407 C 394.52294,540.53945 393.11044,539.9132 391.52919,539.52695"
       id="path8468"
       style="fill:#ffffff;fill-opacity:1;fill-rule:evenodd;stroke:none" />
    <path
       d="M 394.42544,553.26195 C 396.15419,552.65945 397.00544,552.04945 397.35544,551.79195 C 397.57419,551.31445 397.57544,550.33195 397.40169,549.15195 L 396.45169,550.68195 L 396.62794,549.25195 C 395.22169,550.83445 394.75169,551.9282 394.42544,553.26195 z M 384.58669,550.6907 C 387.41919,550.39695 391.36794,549.5132 394.28419,547.9207 C 392.67669,549.42195 390.86794,550.31195 388.11544,551.6707 C 391.23919,551.02695 392.68169,549.9632 394.61044,548.63695 C 393.17169,550.1282 392.56169,551.63195 391.50669,553.2207 C 391.50669,553.2207 387.84419,553.84945 384.58669,550.6907 z M 383.39044,545.38695 C 386.10544,546.1132 388.16419,545.99695 390.82044,545.89195 L 386.68294,547.16695 C 388.83544,547.08195 391.33169,546.7332 393.38794,546.2532 C 389.01919,548.33195 383.43169,548.62195 383.43169,548.62195 C 382.87669,547.58445 382.89794,546.23945 383.39044,545.38695"
       id="path8470"
       style="fill:#0099ff;fill-opacity:1;fill-rule:evenodd;stroke:none" />
    <path
       d="M 394.42285,553.26288 C 396.15116,552.6612 397.00394,552.04984 397.35273,551.79366 C 397.57055,551.31576 397.57196,550.33306 397.39829,549.15446 L 396.44871,550.68395 L 396.62524,549.25349 C 395.21867,550.83571 394.74887,551.93036 394.42285,553.26395 L 394.42285,553.26288 z M 384.58401,550.69256 C 387.41708,550.39764 391.36485,549.51396 394.28191,547.92205 C 392.67319,549.42355 390.86658,550.31369 388.11324,551.67204 C 391.23672,551.02839 392.67889,549.96495 394.6065,548.63781 C 393.16863,550.12856 392.5593,551.63221 391.50438,553.22198 C 391.50438,553.22198 387.84132,553.84949 384.58401,550.69256 z M 383.38814,545.38833 C 386.10163,546.11486 388.16021,545.99861 390.81675,545.89421 L 386.67962,547.1686 C 388.8336,547.08358 391.32784,546.73591 393.38501,546.25371 C 389.01584,548.33429 383.42942,548.62383 383.42942,548.62383 C 382.8742,547.58623 382.89556,546.24295 383.38814,545.3894 L 383.38814,545.38833 z"
       id="path8474"
       style="fill:none;stroke:#cccccc;stroke-width:0.07749967;stroke-linecap:butt;stroke-linejoin:miter;stroke-miterlimit:4;stroke-dasharray:none;stroke-opacity:1" />
    <path
       d="M 372.55794,518.0782 L 370.49544,523.52195 L 362.80919,524.0207 L 368.59419,527.12445 L 366.09544,533.3182 L 373.10419,529.34695 L 379.95419,532.38695 L 377.01294,526.5957 L 382.25419,523.02695 L 375.29794,523.39945 L 372.55919,518.0782"
       id="path8476"
       style="fill:#ffffff;fill-opacity:1;fill-rule:nonzero;stroke:none" />
    <path
       d="M 372.55559,518.07928 L 370.49273,523.52343 L 362.80644,524.02178 L 368.59215,527.12381 L 366.09364,533.31818 L 373.10085,529.34646 L 379.95145,532.38606 L 377.01019,526.5964 L 382.25208,523.02616 L 375.29611,523.39965 L 372.55844,518.0782 L 372.55559,518.07928 z"
       id="path8480"
       style="fill:none;stroke:#000000;stroke-width:0.0624998;stroke-linecap:butt;stroke-linejoin:miter;stroke-miterlimit:4;stroke-dasharray:none;stroke-opacity:1" />
    <path
       d="M 385.50669,515.99195 L 392.40169,516.5357 L 395.35169,512.38695 L 396.96169,517.12695 L 403.23419,517.76695 L 397.92169,519.9207 L 399.56419,524.6832 L 394.19544,521.28695 L 387.93044,523.6057 L 390.74419,519.4232 L 385.50794,515.99195"
       id="path8482"
       style="fill:#ffffff;fill-opacity:1;fill-rule:nonzero;stroke:none" />
    <path
       d="M 385.50369,515.99331 L 392.39843,516.53686 L 395.34823,512.38863 L 396.95838,517.12886 L 403.23098,517.76929 L 397.91791,519.92305 L 399.56081,524.68481 L 394.19223,521.28786 L 387.92674,523.60846 L 390.73987,519.42578 L 385.50369,515.99439 L 385.50369,515.99331 z"
       id="path8486"
       style="fill:none;stroke:#000000;stroke-width:0.0624998;stroke-linecap:butt;stroke-linejoin:miter;stroke-miterlimit:4;stroke-dasharray:none;stroke-opacity:1" />
    <path
       d="M 372.55794,518.0782 L 370.49544,523.5232 L 362.80794,524.0207 L 368.59294,527.12445 L 366.09419,533.3182 L 373.10294,529.34695 L 379.95294,532.38695 L 377.01169,526.59695 L 382.25419,523.02695 L 375.29669,523.39945 L 372.55794,518.0782"
       id="path8488"
       style="fill:#ffffff;fill-opacity:1;fill-rule:nonzero;stroke:none" />
    <path
       d="M 385.50544,515.9932 L 392.40169,516.5357 L 395.35044,512.38695 L 396.96044,517.1282 L 403.23419,517.7682 L 397.92044,519.9207 L 399.56419,524.68445 L 394.19544,521.2882 L 387.93044,523.60695 L 390.74419,519.42445 L 385.50544,515.9932"
       id="path8490"
       style="fill:#ffffff;fill-opacity:1;fill-rule:nonzero;stroke:none" />
    <path
       d="M 376.36544,526.47945 L 378.88044,531.4307 L 373.06544,528.8507 L 367.10669,532.22695 L 369.23169,526.95945 L 364.34419,524.33695 L 370.91794,523.9107 L 372.63669,519.3732 L 374.93294,523.83445 L 380.70294,523.5257 L 376.36544,526.47945"
       id="path8492"
       style="fill:#bfcccc;fill-opacity:1;fill-rule:nonzero;stroke:none" />
    <path
       d="M 396.52169,517.5007 L 401.48419,518.00695 L 397.28169,519.7107 L 398.60169,523.53445 L 394.27419,520.7982 L 389.16169,522.68945 L 391.42669,519.3232 L 387.17919,516.5407 L 392.70919,516.9757 L 395.16919,513.5182 L 396.52169,517.5007"
       id="path8494"
       style="fill:#bfcccc;fill-opacity:1;fill-rule:nonzero;stroke:none" />
    <path
       d="M 374.86419,512.41945 C 375.22044,512.4482 375.56419,512.5157 375.91544,512.56695 C 375.97294,512.21445 375.90169,511.8632 375.86169,511.51445 C 376.21669,511.5907 376.57169,511.66695 376.92669,511.7457 C 377.04794,512.6907 377.07794,513.64695 377.01794,514.6082 C 376.64169,514.5557 376.27419,514.4807 375.89669,514.4382 C 375.34169,514.7782 374.61794,514.95195 374.02294,514.90945 C 373.74669,514.87195 371.87919,514.28945 374.86419,512.41945 z M 375.91919,512.78695 C 375.11794,512.98195 373.85419,513.7607 374.19169,514.2432 C 374.34294,514.31945 374.44419,514.3482 374.70919,514.2607 C 375.41919,513.9407 375.80169,513.3432 375.91919,512.78695 z M 359.48169,513.1907 L 360.35794,513.3482 C 360.36044,513.41695 360.36294,513.4857 360.36669,513.55445 C 360.65419,513.4132 360.98044,513.4007 361.29294,513.3457 C 361.59669,513.4132 361.90294,513.47445 362.19794,513.5607 C 361.10669,513.76445 360.50669,514.1807 360.38919,514.38195 C 360.20544,514.8232 360.18919,515.15195 360.28919,515.6307 C 359.92294,515.5307 359.41169,515.37945 359.04794,515.2782 C 359.16044,514.5807 359.30544,513.8857 359.48169,513.1907 z M 369.55794,512.37445 C 369.92544,512.4407 370.31294,512.45195 370.67169,512.5432 C 370.66794,512.6107 370.66294,512.67695 370.65794,512.7432 C 371.11044,512.6082 371.49169,512.35195 371.93294,512.19195 C 372.26294,512.2557 372.59294,512.3207 372.92294,512.3857 C 372.61044,513.1182 372.57169,513.8707 372.65294,514.60695 C 372.26794,514.5307 371.88169,514.45445 371.49669,514.3782 C 371.43669,514.03945 371.37294,513.60945 371.40044,513.14195 C 370.67294,513.42945 370.36669,514.2582 370.29544,514.8132 C 369.82419,514.71445 369.49169,514.6732 369.02169,514.5757 C 369.21294,513.8432 369.39169,513.10945 369.55794,512.37445 z M 362.16669,513.85195 C 362.34544,513.7457 362.67544,513.68195 362.93419,513.63195 C 362.75919,513.57195 362.42044,513.4682 362.24544,513.40945 C 362.30044,512.9407 362.39544,512.02695 362.40544,512.00695 C 362.74044,512.0732 363.17419,512.1407 363.50919,512.2082 C 363.39544,513.1457 363.21419,515.18445 363.20169,515.26695 C 362.80169,515.18945 362.40294,515.11195 362.00544,515.0332 C 362.05419,514.5982 362.10294,514.2882 362.16669,513.85195"
       id="path8496"
       style="fill:#000000;fill-opacity:1;fill-rule:evenodd;stroke:none" />
    <path
       d="M 356.30669,513.41195 C 354.85169,513.84195 354.17544,515.8557 355.83419,515.6857 C 358.04044,515.45945 358.03544,512.90195 356.30669,513.41195 z M 354.84919,513.3607 C 355.66669,512.9182 356.65169,512.7857 357.32544,512.95445 C 358.87044,513.22195 359.47169,514.76945 357.76169,515.74195 C 356.75669,516.31445 355.53169,516.36445 354.73294,516.04695 C 353.48544,515.5532 353.37544,514.15695 354.84919,513.3607"
       id="path8498"
       style="fill:#000000;fill-opacity:1;fill-rule:evenodd;stroke:none" />
    <path
       d="M 366.45294,511.2932 L 365.59044,512.6832 L 363.58419,512.8507 L 364.94044,513.63695 L 364.37169,515.0982 L 366.33294,514.0932 L 368.03919,514.9757 L 367.51044,513.5782 L 369.38669,512.5632 L 367.09919,512.6182 L 366.45294,511.2932"
       id="path8500"
       style="fill:#000000;fill-opacity:1;fill-rule:nonzero;stroke:none" />
    <path
       d="M 378.86544,513.04195 C 378.20044,513.28695 378.35669,514.38945 379.48294,514.31945 C 380.91794,514.22945 380.12169,512.5782 378.86544,513.04195 z M 378.15919,512.69195 C 379.34294,512.13445 381.58419,512.8457 381.13544,514.03695 C 380.76294,515.0282 378.38794,515.0407 377.71044,514.22695 C 377.32294,513.7607 377.53419,512.98695 378.15919,512.69195"
       id="path8502"
       style="fill:#000000;fill-opacity:1;fill-rule:evenodd;stroke:none" />
    <path
       d="M 379.97294,539.5382 L 381.09044,539.01195 L 382.15544,539.59695 L 381.83794,538.63195 L 382.90544,538.0482 L 381.59169,537.97945 L 381.18544,537.0332 L 380.69169,537.95445 L 379.37294,537.9532 L 380.38169,538.5932 L 379.97294,539.5382"
       id="path8504"
       style="fill:#ffffff;fill-opacity:1;fill-rule:nonzero;stroke:none" />
    <path
       d="M 379.96996,539.53839 L 381.08753,539.01205 L 382.15241,539.59866 L 381.83494,538.63425 L 382.90267,538.0498 L 381.58723,537.97984 L 381.18149,537.03373 L 380.68748,537.95508 L 379.36917,537.95293 L 380.37855,538.59443 L 379.96996,539.53839 z"
       id="path8508"
       style="fill:none;stroke:#000000;stroke-width:0.0624998;stroke-linecap:butt;stroke-linejoin:miter;stroke-miterlimit:4;stroke-dasharray:none;stroke-opacity:1" />
    <path
       d="M 367.00169,542.4957 L 367.73669,542.1482 L 368.43669,542.53445 L 368.22669,541.8982 L 368.93044,541.51445 L 368.06544,541.4682 L 367.79919,540.8457 L 367.47419,541.45195 L 366.60669,541.45195 L 367.27044,541.8732 L 367.00169,542.4957"
       id="path8510"
       style="fill:#ffffff;fill-opacity:1;fill-rule:nonzero;stroke:none" />
    <path
       d="M 366.99909,542.49726 L 367.73369,542.1496 L 368.43412,542.53494 L 368.22485,541.89774 L 368.92955,541.51349 L 368.06255,541.46828 L 367.79632,540.84615 L 367.47174,541.45213 L 366.60474,541.45213 L 367.26815,541.8719 L 366.99909,542.49511 L 366.99909,542.49726 z"
       id="path8514"
       style="fill:none;stroke:#000000;stroke-width:0.0624998;stroke-linecap:butt;stroke-linejoin:miter;stroke-miterlimit:4;stroke-dasharray:none;stroke-opacity:1" />
    <path
       d="M 368.31544,512.83695 L 367.13044,513.47695 L 367.48419,514.41195 L 366.31669,513.8157 L 364.93294,514.5357 L 365.31919,513.5432 L 364.43419,513.0307 L 365.80919,512.9157 L 366.41669,511.93695 L 366.87419,512.87195 L 368.31669,512.83695"
       id="path8516"
       style="fill:#ffffff;fill-opacity:1;fill-rule:nonzero;stroke:none" />
    <path
       d="M 368.31311,512.83854 L 367.12864,513.47896 L 367.4817,514.41324 L 366.31431,513.81801 L 364.93052,514.53809 L 365.31917,513.5457 L 364.43225,513.03336 L 365.80749,512.91819 L 366.41539,511.93871 L 366.87095,512.87514 L 368.31311,512.83961 L 368.31311,512.83854 z"
       id="path8520"
       style="fill:none;stroke:#000000;stroke-width:0.0624998;stroke-linecap:butt;stroke-linejoin:miter;stroke-miterlimit:4;stroke-dasharray:none;stroke-opacity:1" />
    <path
       d="M 379.97294,539.5382 L 381.09044,539.01195 L 382.15544,539.59695 L 381.83794,538.63195 L 382.90544,538.0482 L 381.59044,537.9782 L 381.18544,537.03195 L 380.69044,537.95445 L 379.37294,537.9532 L 380.38169,538.5932 L 379.97294,539.5382"
       id="path8522"
       style="fill:#ffffff;fill-opacity:1;fill-rule:nonzero;stroke:none" />
    <path
       d="M 367.00169,542.4957 L 367.73669,542.1482 L 368.43669,542.53445 L 368.22794,541.89945 L 368.92919,541.51445 L 368.06419,541.46945 L 367.79794,540.8457 L 367.47294,541.4532 L 366.60669,541.4532 L 367.27044,541.8732 L 367.00169,542.4957"
       id="path8524"
       style="fill:#ffffff;fill-opacity:1;fill-rule:nonzero;stroke:none" />
    <path
       d="M 368.31544,512.83695 L 367.13044,513.4782 L 367.48419,514.41195 L 366.31794,513.81695 L 364.93294,514.5357 L 365.31919,513.5432 L 364.43419,513.0307 L 365.81044,512.9157 L 366.41669,511.93695 L 366.87294,512.87195 L 368.31544,512.83695"
       id="path8526"
       style="fill:#ffffff;fill-opacity:1;fill-rule:nonzero;stroke:none" />
  </g>
</svg>
